<svg xmlns="http://www.w3.org/2000/svg" viewBox="0 0 2632.12 1470.78"><defs><style>.cls-1{fill:#466eb6;}.cls-2{fill:#f7a491;}.cls-3{fill:#fae0b2;}.cls-4{fill:#184655;}.cls-5{fill:#13375b;}.cls-6{fill:#e8bd70;}.cls-7{fill:#f7cc7f;}.cls-8{fill:#f47458;}.cls-9{fill:#b75742;}.cls-10{fill:#3c8f7c;}.cls-11{fill:#f79c8d;}.cls-12{fill:#f48c7f;}.cls-13{fill:#50bfa5;}.cls-14{fill:#355389;}</style></defs><g id="Capa_2" data-name="Capa 2"><g id="Layer_1" data-name="Layer 1"><path class="cls-1" d="M2536.89,1056.67a1157.14,1157.14,0,0,1,53.29,396h5.09a1164.52,1164.52,0,0,0-53.52-392.88c-9.34-29.43-18.71-63.89-46.19-81.76-.53-.35-1,.48-.49.83C2519.79,996.64,2528.14,1029.15,2536.89,1056.67Z"/><path class="cls-1" d="M2572.27,1452.71a1445.63,1445.63,0,0,0-206.49-363.25c-.89-1.15-2.92.4-2,1.56A1444.29,1444.29,0,0,1,2566,1452.71Z"/><path class="cls-1" d="M2548.55,987.86c-2.49,2.15-11.15,7.16-15.57,15.61-5,7.81-5.71,19-5.38,18.74.45.35-6-9-5.65-21.05-.49-11.76,5.93-26.18,11.5-30,10.33-9.32,23.41-7,24.43-.9C2559.05,976.36,2553.73,982.86,2548.55,987.86Z"/><path class="cls-1" d="M2506.07,1080c3.08-1.15,11.65-6.31,21.19-6.09,9.24-.6,19.44,4.2,19,4.33.09.57-5-9.65-15.69-15.1-10.07-6.12-25.79-7.47-31.86-4.45-13.15,4.55-17.47,17.11-12.59,21S2499.18,1082.14,2506.07,1080Z"/><path class="cls-1" d="M2519.74,1129.06c3.08-1.14,11.65-6.3,21.18-6.09,9.24-.59,19.44,4.2,19,4.34.09.57-5-9.66-15.7-15.11-10.06-6.12-25.79-7.46-31.85-4.45-13.15,4.55-17.47,17.11-12.59,21S2512.85,1131.18,2519.74,1129.06Z"/><path class="cls-1" d="M2404.18,1203.34c3.08-1.14,11.65-6.31,21.18-6.09,9.24-.59,19.44,4.2,19,4.33.09.58-5-9.65-15.7-15.1-10.06-6.12-25.79-7.47-31.85-4.45-13.15,4.55-17.47,17.11-12.59,21S2397.29,1205.46,2404.18,1203.34Z"/><path class="cls-1" d="M2369.36,1151c3.08-1.14,11.65-6.3,21.18-6.09,9.24-.59,19.44,4.2,19,4.34.08.57-5-9.66-15.7-15.11-10.06-6.11-25.79-7.46-31.85-4.44-13.15,4.55-17.47,17.1-12.59,20.95C2354.21,1154.6,2362.47,1153.08,2369.36,1151Z"/><path class="cls-1" d="M2570.71,1045.15c-2.8,1.73-12.14,5.31-17.84,13-6.14,6.92-8.64,17.91-8.27,17.65.4.42-4.55-9.86-2.25-21.67,1.36-11.69,10-24.92,16.08-27.84,11.68-7.57,24.24-3.26,24.27,3C2582.9,1035.45,2576.62,1041,2570.71,1045.15Z"/><path class="cls-1" d="M2594.62,1103c-3.54.81-15.15.89-22.76,7.52-8.09,5.56-12.17,17.66-11.7,17.52.44.69-4.52-14-.6-27.13,2.79-13.48,14.46-25.51,22.12-26.26,14.81-3.83,29.52,7.07,29,14.58C2610.26,1096.87,2602.15,1100.74,2594.62,1103Z"/><path class="cls-1" d="M2613.84,1186.13c-3.62.21-15.08-1.67-23.7,3.59-8.91,4.11-15,15.36-14.48,15.3.32.75-2.11-14.51,4-26.85,5-12.81,18.55-22.71,26.22-22.17,15.24-1.28,27.92,11.94,26.1,19.24C2630.29,1182.69,2621.65,1185.14,2613.84,1186.13Z"/><path class="cls-1" d="M2485.69,1206.07c-2.83.86-12.27,1.59-18.08,7.42-6.27,5-8.9,15-8.52,14.92.39.53-4.47-11.1-2-22.05,1.5-11.12,10.31-21.57,16.49-22.62,11.83-4,24.42,4.08,24.39,10.21S2491.69,1203.78,2485.69,1206.07Z"/><path class="cls-1" d="M2480.27,987.81c1.77-.81,6.62-4.24,12.27-4.53,5.44-.75,11.68,1.63,11.43,1.73.08.34-3.36-5.49-9.94-8.25-6.23-3.18-15.59-3.28-19-1.23-7.58,3.26-9.59,10.88-6.53,12.94S2476.29,989.37,2480.27,987.81Z"/><path class="cls-1" d="M2502.45,960.63c-.57,1.86-3.33,7.12-2.86,12.76,0,5.49,3.16,11.36,3.23,11.1.34,0-5.89-2.61-9.5-8.77-4-5.74-5.32-15-3.74-18.7,2.23-7.95,9.51-10.95,12-8.19S2503.47,956.48,2502.45,960.63Z"/><path class="cls-1" d="M2347.49,1101.24c1.78-.81,6.62-4.24,12.27-4.53,5.44-.75,11.68,1.64,11.43,1.73.08.34-3.36-5.49-9.94-8.25-6.23-3.17-15.59-3.28-19-1.23-7.58,3.26-9.59,10.88-6.53,13S2343.51,1102.8,2347.49,1101.24Z"/><path class="cls-1" d="M2372.61,1074.57c-.72,1.8-3.9,6.82-3.9,12.47-.48,5.48,2.22,11.59,2.31,11.33.34.06-5.66-3.08-8.75-9.51-3.48-6-4.07-15.4-2.19-18.95,2.87-7.74,10.38-10.13,12.59-7.18S2374,1070.51,2372.61,1074.57Z"/><path class="cls-1" d="M1712.15,1151.08c69,68.51,129.12,146.15,174.08,232.5,12.63,24.24,23.31,49.19,34.31,74.17,1.46,3.32,7.12,1,5.89-2.48l-3.68-10.28c-.72-2-4.37-1.9-4,.55.46,3.53.93,7.06,1.39,10.58l6.33-.85c-17.1-45.15-40.83-88.66-66.37-129.53-76.54-122.48-155.8-182.49-147.91-174.66Z"/><path class="cls-1" d="M1797.75,1188.26c-2,2.33-9.46,8.15-12.47,16.62-3.62,7.94-2.82,18.53-2.55,18.2.47.26-6.84-7.63-8-18.9-2-10.92,2.08-25.22,6.77-29.55,8.42-10.06,20.93-9.65,22.69-4.06S1801.93,1182.9,1797.75,1188.26Z"/><path class="cls-1" d="M1750.92,1138.13c-2,2.33-9.47,8.15-12.48,16.62-3.62,7.94-2.82,18.53-2.55,18.2.47.26-6.84-7.63-8.05-18.9-2-10.92,2.08-25.22,6.77-29.55,8.42-10.06,20.93-9.66,22.69-4.06C1759.21,1126,1755.1,1132.77,1750.92,1138.13Z"/><path class="cls-1" d="M1700.28,1181.87c2.65-1.6,9.68-7.9,18.54-9.39,8.45-2.17,18.75.46,18.37.66.18.51-6.31-8.06-17.21-11.21-10.4-3.89-25.19-2.36-30.28,1.51-11.37,6.54-13.15,18.93-8,21.63C1686.91,1187.92,1694.28,1185.05,1700.28,1181.87Z"/><path class="cls-1" d="M1750,1236.27c2.65-1.6,9.67-7.9,18.54-9.38,8.45-2.19,18.74.45,18.36.65.18.51-6.31-8.06-17.2-11.22-10.4-3.88-25.2-2.34-30.28,1.52-11.37,6.54-13.15,18.93-8,21.63S1744,1239.45,1750,1236.27Z"/><path class="cls-1" d="M1786.33,1282.74c2.65-1.61,9.67-7.9,18.54-9.39,8.45-2.18,18.74.45,18.36.66.18.51-6.31-8.06-17.2-11.22-10.4-3.88-25.2-2.35-30.28,1.52-11.37,6.53-13.15,18.92-8,21.63S1780.33,1285.92,1786.33,1282.74Z"/><path class="cls-1" d="M1816.58,1329.2c2.65-1.6,9.67-7.89,18.54-9.38,8.45-2.18,18.74.45,18.36.65.18.52-6.31-8.06-17.2-11.21-10.4-3.88-25.2-2.35-30.28,1.52-11.37,6.53-13.15,18.92-8,21.62S1810.57,1332.39,1816.58,1329.2Z"/><path class="cls-1" d="M1836.54,1239c-2,2.34-9.47,8.15-12.47,16.62-3.62,8-2.83,18.54-2.56,18.2.47.27-6.84-7.62-8-18.89-2-10.92,2.08-25.22,6.77-29.55,8.42-10.06,20.93-9.66,22.68-4.07C1844.83,1226.88,1840.72,1233.64,1836.54,1239Z"/><path class="cls-1" d="M1870.94,1290.05c-2,2.32-9.47,8.15-12.48,16.62-3.62,7.94-2.82,18.53-2.55,18.19.47.27-6.84-7.62-8.05-18.89-2-10.92,2.08-25.22,6.77-29.56,8.42-10.05,20.93-9.65,22.69-4.06C1879.23,1277.93,1875.12,1284.69,1870.94,1290.05Z"/><path class="cls-1" d="M1744.85,1373c4,2.48,14.1,11,19.28,16.21,14.21,14.42,27.08,34.94,34.1,58.11.45,1.47.59,2.82,2,3.68a.74.74,0,0,0,1-.27c.83-1.54.14-3-.32-4.6-3.3-11.62-10.08-26.22-20.29-40.41-17.29-24-30.11-29.57-35.65-32.86-.09-.05-.16.09-.08.14Z"/><path class="cls-1" d="M1730.79,1387.36c2.26-1,8.44-5.4,15.64-5.77,6.93-1,14.9,2.08,14.58,2.21.09.42-4.29-7-12.69-10.52-7.93-4-19.86-4.19-24.27-1.58-9.67,4.17-12.22,13.88-8.33,16.51S1725.71,1389.35,1730.79,1387.36Z"/><path class="cls-1" d="M1759.07,1352.71c-.73,2.37-4.25,9.08-3.66,16.27,0,7,4,14.49,4.12,14.15.44,0-7.51-3.32-12.1-11.18-5.07-7.32-6.78-19.13-4.78-23.85,2.85-10.13,12.14-13.95,15.26-10.44S1760.36,1347.41,1759.07,1352.71Z"/><path class="cls-1" d="M155,905.67c10.06,6.05,19.28,14.21,28.45,21.5,49.94,39.67,100.6,78.05,169.49,158.75,92.09,107.9,160.89,230.42,202.84,364.24,1.51,4.79,9.08,2.74,7.55-2.08a1033.67,1033.67,0,0,0-114.69-244.47C317.15,998.14,153.26,904.6,155,905.67Z"/><path class="cls-1" d="M403.71,930.42c11,72.48,48.83,137.66,74.9,205.31,69.74,181,81.19,318.77,87.46,334a1.45,1.45,0,0,0,2.83-.38c1.74-14.18-13.64-113.43-43.93-216.65-50.38-171.62-103.12-238.65-118.88-323-.29-1.58-2.61-.89-2.38.66Z"/><path class="cls-1" d="M237.9,909.37c-1.89,3.75-9.65,13.94-10.7,26.1-2,11.68,2.64,25.32,2.87,24.79.72.19-11.59-7.67-17-22.07-6.38-13.66-5.9-33.85-1.22-41.15,7.61-16.1,24.19-19.85,28.41-13.11C244.64,890.6,241.56,900.9,237.9,909.37Z"/><path class="cls-1" d="M352.18,1024.12c-1.42,3.94-7.89,14.94-7.49,27.09-.64,11.79,5.6,24.73,5.77,24.18.73.1-12.37-6.22-19.46-19.82-7.93-12.76-9.85-32.79-6.08-40.56,5.63-16.82,21.58-22.49,26.56-16.32C356.63,1004.76,354.8,1015.31,352.18,1024.12Z"/><path class="cls-1" d="M497.66,1080.63c-2.93,1-12.27,2.35-19.09,8.2-7.1,5.08-11.69,14.66-11.29,14.5.28.47-2.13-10,2.44-20.39,3.7-10.47,14.37-20.83,20.6-22.25,12.31-4.53,22.95,2.06,21.69,7.78S504,1078.07,497.66,1080.63Z"/><path class="cls-1" d="M512.11,1116c-2.92,1-12.26,2.35-19.09,8.19-7.09,5.09-11.68,14.67-11.28,14.51.27.47-2.13-10,2.44-20.39,3.69-10.47,14.37-20.83,20.59-22.25,12.31-4.53,23,2.06,21.69,7.78S518.41,1113.44,512.11,1116Z"/><path class="cls-1" d="M189.47,984.45c2.43-3,8-13.41,17.78-18.94,9-6.18,22.22-7.48,21.86-7.08.43.53-10.86-6.77-25-5.83-13.88-.12-30.61,8-34.94,14.71-10.57,12.54-7.37,27.87-.11,28.82C176.33,997.28,183.77,990.76,189.47,984.45Z"/><path class="cls-1" d="M259.42,1049c2.43-3,8-13.42,17.78-19,9-6.17,22.22-7.47,21.86-7.07.43.52-10.86-6.78-25-5.83-13.88-.13-30.61,8-34.93,14.71-10.58,12.54-7.38,27.86-.11,28.82C246.28,1061.86,253.73,1055.34,259.42,1049Z"/><path class="cls-1" d="M383.55,991.13c3.86.2,15.55-1.4,25.77,3.28,10.28,3.66,19.1,13.6,18.56,13.54-.17.66-.89-12.77-10-23.67-8.05-11.31-24.45-20.09-32.42-19.64-16.35-1.2-26.88,10.38-23.39,16.82C365.45,988,375.1,990.22,383.55,991.13Z"/><path class="cls-1" d="M404,1040.71c3.87.19,15.55-1.41,25.77,3.27,10.28,3.66,19.1,13.6,18.57,13.54-.18.66-.9-12.77-10-23.67-8.05-11.31-24.44-20.08-32.42-19.64-16.35-1.2-26.88,10.38-23.39,16.83C385.94,1037.6,395.59,1039.8,404,1040.71Z"/><path class="cls-1" d="M348.48,1148.57c2.43-3,8-13.41,17.78-19,9-6.17,22.22-7.47,21.86-7.07.43.52-10.86-6.78-25-5.83-13.88-.12-30.61,8-34.93,14.71-10.57,12.54-7.38,27.86-.11,28.82C335.34,1161.4,342.79,1154.87,348.48,1148.57Z"/><path class="cls-1" d="M148.27,930.82c1.92-1.58,6.79-7.37,13.67-9.55,6.46-2.69,14.93-1.76,14.66-1.56.2.39-5.93-5.69-14.94-7-8.7-1.91-20.28,1-23.88,4.62-8.29,6.48-8.31,16.52-3.87,18.08S143.86,934,148.27,930.82Z"/><path class="cls-1" d="M166.85,890.13c-.1,2.48-1.81,9.86.58,16.66,1.74,6.78,7.58,13,7.57,12.65.43-.07-8.1-1.31-14.54-7.74-6.76-5.81-11.41-16.8-10.66-21.87.19-10.52,8.21-16.57,12.12-14S166.76,884.68,166.85,890.13Z"/><path class="cls-1" d="M26.58,1251c97,29.66,181,90.91,261.67,150.4,54.43,40.13,49.85,47.75,61.24,54.35a2.5,2.5,0,0,0,3.63-2.8c-2.93-10.18-14-18.81-21.59-25.78a337.32,337.32,0,0,0-27.74-22.72c-20.52-15.27-41.84-29.55-63-43.94-43-29.27-87-57.47-134.07-79.84a514.75,514.75,0,0,0-79.94-30.46.41.41,0,0,0-.22.79Z"/><path class="cls-1" d="M121.69,1237.2c-1.41,3.94-7.89,14.94-7.49,27.09-.63,11.79,5.6,24.73,5.77,24.18.73.1-12.37-6.22-19.46-19.82-7.93-12.76-9.85-32.79-6.08-40.56,5.63-16.82,21.59-22.49,26.56-16.32C126.14,1217.84,124.31,1228.39,121.69,1237.2Z"/><path class="cls-1" d="M203,1285c-1.41,3.94-7.88,14.94-7.49,27.09-.63,11.79,5.61,24.73,5.78,24.18.72.1-12.38-6.22-19.47-19.82-7.93-12.75-9.84-32.78-6.08-40.55,5.63-16.83,21.59-22.5,26.56-16.33C207.48,1265.66,205.64,1276.2,203,1285Z"/><path class="cls-1" d="M284.19,1341.37c-1.42,3.94-7.89,14.94-7.49,27.09-.64,11.79,5.6,24.73,5.77,24.18.73.1-12.37-6.22-19.46-19.82-7.93-12.75-9.85-32.79-6.08-40.56,5.63-16.82,21.58-22.49,26.56-16.32C288.64,1322,286.81,1332.56,284.19,1341.37Z"/><path class="cls-1" d="M80.16,1313.79c2.43-3,8-13.42,17.78-19,9-6.17,22.22-7.48,21.86-7.08.43.53-10.86-6.77-25-5.83-13.88-.12-30.61,8-34.94,14.72-10.57,12.54-7.37,27.86-.1,28.81C67,1326.61,74.47,1320.09,80.16,1313.79Z"/><path class="cls-1" d="M164.83,1363.15c2.43-3,8-13.42,17.78-19,9-6.17,22.22-7.47,21.86-7.07.43.52-10.86-6.78-25-5.83-13.88-.13-30.61,8-34.94,14.71-10.57,12.54-7.37,27.86-.1,28.82C151.69,1376,159.14,1369.45,164.83,1363.15Z"/><path class="cls-1" d="M17.31,1267.59c1.92-1.57,6.79-7.37,13.67-9.55,6.46-2.69,14.94-1.76,14.66-1.55.2.38-5.93-5.7-14.93-7-8.7-1.91-20.28,1-23.89,4.63-8.29,6.47-8.31,16.51-3.87,18.08S12.9,1270.79,17.31,1267.59Z"/><path class="cls-1" d="M35.89,1226.9c-.1,2.48-1.8,9.86.58,16.66,1.75,6.79,7.58,13,7.58,12.66.43-.08-8.11-1.32-14.55-7.75-6.75-5.81-11.4-16.8-10.66-21.87.19-10.52,8.21-16.57,12.12-14S35.8,1221.45,35.89,1226.9Z"/><path class="cls-2" d="M2073.68,1402.67c1.38-9.94-1.73-27.05-9.52-53.8,15.42,0,28.38-6.79,44.14-6.55,4.3,25.16,11,66.48,11,66.48l.72,32.66-109.7.83s.91.47,33.25-20C2045.93,1420.81,2072.34,1412.28,2073.68,1402.67Z"/><path class="cls-3" d="M2120.5,1449.86H2007.26c-4.19-.38-5.21-3.8-3.76-5.9,3-4.34,25.08-14.75,39.93-21.66,26,2.74,71.82-8,75.94-14C2126.51,1428.27,2122.83,1449.34,2120.5,1449.86Z"/><path class="cls-2" d="M2210.33,1402.67c1.39-9.94,3.75-22.39.29-55.55,15.42,0,30.08-2.85,45.84-2.62,0,25.89-.54,64.3-.54,64.3l.71,32.66-109.7.83s.91.47,33.26-20C2182.58,1420.81,2209,1412.28,2210.33,1402.67Z"/><path class="cls-3" d="M2257.16,1449.86H2143.91c-4.19-.38-5.21-3.8-3.75-5.9,3-4.34,25.07-14.75,39.92-21.66,26.05,2.74,71.83-8,75.94-14C2263.16,1428.27,2259.48,1449.34,2257.16,1449.86Z"/><path class="cls-4" d="M2104,690.19l33.46,18.66,68,104-121.64,286.31s13.7,43,18.16,64.57c4.67,22.5,16.12,215.68,16.12,215.68l-51.89.87s-49.29-205.65-57.64-272.39c-10.13-81.06,51.59-274.1,51.59-274.1,11.51-39.38,36.32-120.4,36.32-120.4S2102.52,693.64,2104,690.19Z"/><path class="cls-1" d="M2220.42,651.13s-3.46,24.46,10.38,52.37c8.44,17,23,30.35,33.44,51.19,19.75,39.43,30.47,95.45,23.07,131.45,0,0-40.83,155.92-39.21,212.9.6,21,7.81,58.87,12.42,84.46,4.08,22.63,2.64,190.48,2.64,190.48L2208,1375l-44.37-275.3L2144.89,855,2104,690.19Z"/><path class="cls-5" d="M2091.59,287.42c5.35-25.27,10.88-50.64,36-68.84,20.32-14.73,42.16-18.94,65.31-10.55,65.59,23.8,30.31,75.85,111.72,131.34,25.29,17.24,34.89,23.25,53,46.22,25.41,32.16,39.3,75.31,26.53,110.83-26.42,73.46-108.26,94.68-151.07,79.11-79.69-29-146.08-130.06-150.49-157.64C2077.89,388.38,2088.15,303.69,2091.59,287.42Z"/><path class="cls-2" d="M2129.17,479.13l-39.39-45.23s-45.15,22.41-97.58,43.42c-13.1-25.21-32.76-107.14-33.84-111.06s29.24-51.37,23-52.86-15.63,25.36-22.2,22.33-21.11-66.85-25.28-63.58c-7.8,6.12,7.4,39.62,3.32,41.84s-12.5-36.94-20.23-35.62,11.45,35.82,9.06,39-22.61-29.31-27.37-22.2c-2.58,3.87,18.71,28.3,14,30.74s-24.16-13.21-26.76-8.52,18.33,10.58,23.69,23S1925.4,357.86,1928,381s7.08,146.1,31.66,157C1981.1,547.46,2129.17,479.13,2129.17,479.13Z"/><path class="cls-6" d="M2122.85,432.18c9.9-17.37,2.17-36,2.17-36-30,18.28-75.44,49.42-75.44,49.42,12.54,45.87,24.18,69.25,24.18,69.25,27.84-16.49,30.77-17.06,30.77-17.06C2117,438.25,2122.85,432.18,2122.85,432.18Z"/><path class="cls-7" d="M2125,396.16c22.69-6,27.29-3,69.38-2.36,64.48.92,97-13.93,134.22,151.33,0,0-29.71,11.74-59.26,9.7-3.84-19.05-3.6-52.92-10.46-31.85a611,611,0,0,0-23,97c-3.24,19.61-10.27,44.71-6.57,64.69,0,0-43.92,9-77.47,10.52a1.34,1.34,0,0,1-.28,0c-16.21-.41-32.81-1.84-47.59-5,0,0-6.64-139-10.09-144.86C2058.16,484.83,2125,396.16,2125,396.16Z"/><path class="cls-2" d="M2184.29,331.91s5.14,41.47,8.17,55.86c3.17,15.07,7.93,62.51-23.31,70.21s-21.58-51.62-22.1-66.93-9.37-68.73-9.37-68.73Z"/><path class="cls-8" d="M2186,345.14c-.31.19-.61.39-.94.58-17.26,9.9-32.29,8.34-43.57.63-2-13.25-3.8-24-3.8-24l46.61,9.59S2185,337.43,2186,345.14Z"/><path class="cls-2" d="M2174.9,223.91a53.45,53.45,0,0,1,28.86,23.33c10.56,18.18,15.82,70.39-23,92.66s-66.44-13.41-65.26-46.8S2126,215.53,2174.9,223.91Z"/><path class="cls-2" d="M2106.88,278.77c-.43,8.68,3.29,15.92,8.3,16.17s9.42-6.58,9.85-15.25-3.28-15.93-8.29-16.18S2107.32,270.09,2106.88,278.77Z"/><path class="cls-5" d="M2169.4,222.54s20.95,54.6,41.45,60.42,18.86,32.69,18.86,32.69,2.62-62.09-16.1-77.31S2169.4,222.54,2169.4,222.54Z"/><path class="cls-2" d="M2202.06,293.65c-3.17,8.53-1.09,17.2,4.63,19.36s12.91-3,16.08-11.56,1.08-17.2-4.64-19.35S2205.22,285.11,2202.06,293.65Z"/><path class="cls-8" d="M2201.61,642.06s3.95-3.92,6.36,1.55c15.88,36.07,69.55,182.65,7.55,225-71.41,48.83-67.45-29-20.19-51.64S2201.61,642.06,2201.61,642.06Z"/><path class="cls-8" d="M2158.46,432.18S2089.35,485.5,2091,553.12c1.06,44,55,119.22,103.17,109.25,18.37-3.8,46-22.61,47.11-48.45,1.13-27.17-24.8-61.33-24.8-61.33l53.19-131.86c2.59-3.5,25.18-33.38,24.53-33.78-5-3-25.35-7.93-42.91,25.62-2.83,5.41-19.23,29.19-30.28,32C2193.2,451.73,2158.46,432.18,2158.46,432.18Z"/><path class="cls-9" d="M2158.46,432.18s34.74,19.55,62.52,12.42c3.92-1,8.51-4.65,12.93-9.17A184.93,184.93,0,0,1,2207.54,465c-22.63-2.31-45.89-12.67-61.69-21.71C2153.31,436.15,2158.46,432.18,2158.46,432.18Z"/><path class="cls-8" d="M2133.77,363.17s-1.73,27.88,9,35.1c0,0-4.65,23.57-2.09,27.62s18.1,25.75,69.34,32.1c0,0,40.65-34.86,36.13-61.76L2230.05,373s-5.25-27.44-16.43-35.54l-14.07,28.83s-31.15,5.46-36.7,13Z"/><path class="cls-8" d="M2201.74,550.67s43.86-3,52.66,29.09-1.14,36.61-1.14,36.61,51.12-22.83,56.89-7.46c2.78,7.37-106.09,50.28-106.09,50.28Z"/><path class="cls-2" d="M2103,662.67c-.76-.13-3.88-1.61-6.57-2.4a52.59,52.59,0,0,0-7.12-1.59,20.61,20.61,0,0,0-3.4-3.89c-1-.9-2.8-1.7-3.89-2.71s-1.88-2.53-3-3.49c-2.81-2.46-5.7-3.76-7.24-2.36-1.28,1.15,13.31,18.08,13.31,18.08,16.76,5.5,31.6,19.71,78.69,6.83,25.36-2.58,150.46-21.21,156.37-32.14,3.31-6.13,3-62,1.75-104.64-11.95,1.32-37.32,4.07-51.41,5.29,3.64,27.8,6.79,64.13,4.12,67.6-.69.9-2.64,2.31-91,26.66-2.23.59-4.51,1.24-6.82,1.88-6.22,1.7-12.87,3.53-19.92,5.44l-20.12-8.86s-33.7-8.32-35.89-4.88c-1,1.58,1.48,3.31,4.68,4.88l.1,0,1.42.68.06,0c3.49,1.59,7.29,2.89,8.11,3.51a22.46,22.46,0,0,1,4.18,4c-23.25,1.79-20.7-.7-27.38-3.31-1.67-.69-3.64-.78-5.22-1.43-2.69-1.12-4.37-3.47-6.46-4.29a9.78,9.78,0,0,0-6.83-.13c-1,.5.05,2,2.3,4,13.67,12,27.66,13.57,31.55,15.94,2.61,1.61-2.9,1-10.7-2.45-1.94-.84-4.81-1-7.28-2.45-1.65-1-2.89-2.64-4.5-3.63s-3.15-1.4-4.41-2.1c-1.67-.9-3.71-3.05-5.08-3.66-5.08-2.29-7.94-2.2-8.69-1.89-1.57.69,19.42,17.58,19.42,17.58s15.75,7.67,19.43,8.85C2105.64,661.7,2107.53,663.4,2103,662.67Z"/><path class="cls-7" d="M2322.29,547.32c-9.8,3.14-29.63,8.44-49.88,7.67-.59-5.23-1.22-10.42-1.86-15.34,14.09-1.22,39.46-4,51.41-5.29C2322.08,538.57,2322.19,542.92,2322.29,547.32Z"/><path class="cls-2" d="M746.83,1340.88s4.4,48,1.51,63.66a61.4,61.4,0,0,1-2.23,7.68c-3,8.77,5.18,35.57,5.18,35.57l109.39.41c6,0,2-3.76-2.88-7.22-7.93-5.68-14.32-9.41-39.59-21.23-1.65-.77-7.66-4.48-9.82-5.76-5.5-3.26-11-8.42-15.82-13.6-8-8.63-9.17-50.93-9.17-50.93Z"/><path class="cls-7" d="M808.37,1414c-28.83,7.76-50.28,3-62.3-1.67-3,8.76-8.57,38.39-5.23,38.39,27.43,0,50.65,5.19,129.24,4,2.82-.05,2.48-9.72.64-11.85C865.65,1436.92,810.54,1415.27,808.37,1414Z"/><path class="cls-10" d="M609.64,771s1.55,68.53,21.19,112.41c19.13,42.74,110.66,148.14,135,209.67-7.52,34.7-28.19,83.47-26.69,121.93,1.69,43.59-.85,158.92-.85,158.92l49.13,1.56,64.44-297.62L754.74,756.78l-44.07-78Z"/><path class="cls-2" d="M399.77,1272.63s-30.18,41.42-43.48,51.9c-7.12,5.6-26.46,13.13-28.5,22.4s87.57,91.3,87.57,91.3c4.74,4.2,4.21-1.61,2.77-7.78-2.35-10.1-4.83-17.57-16.72-44.74-.77-1.77-3-9-3.8-11.5-2.1-6.45-2.9-14.46-3.08-22-.3-12.47,28.42-47.11,28.42-47.11Z"/><path class="cls-7" d="M397.61,1374.2c-28.48-14-42.25-32.9-48.58-45.06-8.53,4.91-31.46,15.37-29.45,18.3,15.85,23,32.3,51.59,95.93,105.77,2.28,1.94,11.62-9.24,11.65-12.23C427.25,1432.72,398.44,1376.75,397.61,1374.2Z"/><path class="cls-9" d="M761.13,281c-8.48-55.25-58.46-95-110.74-68.17-11.76,6-27.68,18.27-35.8,28.69-22.33,28.66-27.74,64.18-51.42,91.75-20.41,23.76-74.89,19.28-100.33,37.56s-43.27,51-43.27,90.24c0,43.84,9.9,90.38,43.87,118.09S545.68,613.76,587.91,602s78.48-40.53,104.56-75.76S737,452.39,750,410.53C764.5,363.8,766.61,316.69,761.13,281Z"/><path class="cls-11" d="M569.84,355.92S505.66,241.38,490.05,217,433.76,95.92,432.3,92.11s28-49.61,21.44-51.18S439.88,65.08,432.87,62,405.35-3,401.35.11c-7.48,5.75,11,38.39,7.06,40.45s-16.07-35.92-23.9-34.8,14.89,34.81,12.7,37.78-25.78-28.77-30-22c-2.32,3.68,21.69,27.71,17.08,30s-26-13.26-28.23-8.79,19.75,10.6,26.34,22.66S400.14,82.65,404.8,105s11.62,103.16,35.47,143.48,76.3,129.58,76.3,129.58Z"/><path class="cls-12" d="M953.65,807.28c-7.07-6.11-22.19-19.46-20.81-20.85,1.78-1.8,8.38-.51,10.47.28s4.62,1.53,6.71,2.33,4.41-.1,5.58-2.63-6.47-7.52-9.45-8.72c-9.31-3.73-36.19-8.68-39-9.33-3.34-.77-41.61-47.4-56-62.33h0c-22.82-25.15-45-52.14-47.42-54.82l-62.5-131.31-57,4.19s67.32,146.7,71.52,153.65c2,3.31,59.4,57.49,59.43,57.47,29.94,24.9,56.39,46.77,61.35,51.12,0,0,11.35,17,17.93,28.22,4.23,7.21,10.08,13,14.35,16.9,11.85-10.69,26.89-13.93,40.86-21.46C951,809.14,952.36,808.23,953.65,807.28Z"/><path class="cls-8" d="M713.87,418.27s44.1,21.06,65.84,152.19L705,591.31l-31.11-84.52Z"/><path class="cls-13" d="M613.1,727.15s-38,57.05-47,104.27c-8.81,46,5.83,184.82-9.47,249.19-26.05,24.13-70.94,52.27-91.75,84.65C441.28,1202,373.13,1295,373.13,1295l39.37,29.42,223.33-207,90.4-276.18,31-80.76Z"/><path class="cls-7" d="M643.85,402.54s-50.29-3.2-70.19,18.44,44.14,192.83,47.76,220.38-29.69,82.46-29.69,82.46,138.41,64.72,172.17,42.42c0,0-5.41-220.74-9-240.41s-33.76-99.69-41-107.56S643.85,402.54,643.85,402.54Z"/><path class="cls-2" d="M660.59,335.47s-.26,1.48-.73,4c-2.24,12.06-10.88,52.09-16.71,63.09-7,13.3,24.13,55.72,54.15,50.54,8.93-1.54-7.56-39-6.76-42.94,1.51-7.59,3.57-17.94,5.67-28.55,1.19-6,2.39-12.07,3.52-17.77,3.21-16.22,5.83-29.48,5.83-29.48Z"/><path class="cls-8" d="M659.86,339.47c.47-2.52.73-4,.73-4l45-1.11s-2.62,13.26-5.83,29.48c-1.12,5.67-2.31,11.71-3.5,17.67-6.94-1-14.19-4.39-21.47-10.75a56.54,56.54,0,0,1-16.26-24.14C659.05,343.78,659.51,341.34,659.86,339.47Z"/><path class="cls-2" d="M690.86,233.46s-21.2-2.45-34.49,14.7-27.6,70.19,5.4,99,65.62-3.8,70.46-38.41S738.94,232.21,690.86,233.46Z"/><path class="cls-2" d="M742,308.26c-3.94,7.65-10.55,11.88-14.77,9.46s-4.44-10.59-.5-18.23,10.55-11.88,14.77-9.45S745.93,300.62,742,308.26Z"/><path class="cls-9" d="M693.23,227.79s-28.32,50.43-48.58,52.76-22.92,29.13-22.92,29.13S629,247.93,649,236,693.23,227.79,693.23,227.79Z"/><path class="cls-2" d="M650,293.23c1.65,8.95-1.66,17.17-7.4,18.34s-11.72-5.13-13.37-14.09,1.67-17.17,7.41-18.34S648.32,284.27,650,293.23Z"/><path class="cls-3" d="M552.08,318.8s71,76.19,81.54,106.89-10.29,74.62-39.07,76.54S501.71,367,501.71,367Z"/><path class="cls-14" d="M1341.06,966.83l-5,18.34,30.75,9.7,1-7.63Zm1.44,16.9,2.87-8.27,18,13.3Z"/><path class="cls-8" d="M1444.05,903.82l-10-45L1374.22,896l34.24,27.59S1419.25,895.56,1444.05,903.82Z"/><path class="cls-9" d="M1054.34,1071.15s-69.11,30.88-145.57,69.11-94.84,34.55-105.86,23.53-11.77-35.66-11.77-35.66-18,26.1-8.82,59.55S818,1221.5,818,1221.5l19.11-11.4-12.5,22.43s27,14.15,52.2-11,30.51-41.17,30.51-41.17-9.92,39-19.85,48.89c0,0,27.94,12.5,44.48-9.93s23.9-51.09,23.9-51.09l-6.25,52.56s25.73-9.92,39.7-50.73l-7.36,38.6s26-36,36.5-76.06,32.61-44.51,32.61-44.51Z"/><path class="cls-9" d="M1186.12,1205.89s2.52,84.48-54.36,115.43c-13.83,7.53-36.13,35-31.74,50.07,4.18,14.35,38.2,43.81,38.2,43.81s23.66,1.71,34.34,28.31c1.7,4.22-6,3.18-6,3.18l-60.26.06-52-87.91,3.53-55.09,33.82-85.77,64.7-10.29Z"/><path class="cls-9" d="M1470.46,1152.84s77.24,116.06,94.11,141.25c11.76,17.56,11.76,39.61,11.76,39.61S1573,1369,1566.05,1376a11.07,11.07,0,0,1-5.13,2.44c-17.69,4.4-33.47-12.31-28.46-29.84,2.32-8.11,4.17-15.54,4.17-18.57,0-8.09-3.68-8.82-3.68-8.82L1447.67,1272l-27.94-81.69Z"/><path class="cls-8" d="M1414.46,1178.49l-14,110.42,6.61,125.58s27.21,6.61,35.29,20.58,6.62,16.17,6.62,16.17h-64.7s-52.93-125.89-52.93-139.86-14-91.89-14-102.18,8.82-56.44,39.7-60.12S1414.46,1178.49,1414.46,1178.49Z"/><path class="cls-8" d="M1504.11,886.15l-16.67-22.55s-54.89-15.68-78.42,7.84c-7.51,7.52-16,18.43-19.3,32.83-1.74,7.5-2,22.77-1.91,36.37.15,15.25-2.94,25.34-9,39.08-10.83,16.51-55.59,51.12-73.43,55.46l12.55-1.63s-24.1,12.77-44,16.17c-77.3,12.14-193.82,14.36-219.76,21.77-30.88,8.83-49.63,100-41.17,145.94s-54.43,27.53-69.6,57.22c-14.32,28,40.76,157,40.76,157s14.26,17.36,16.83,19.93h62.25s-2-40.19-33.09-50.48-26.71-76.71-26.71-76.71,89,12.25,133.07-45.58c34-44.54,30.74-56.52,27.45-59.68,16.29,9,130,70.58,187.23,59.68,61.75-11.76,81.36-49,81.36-49l-4.17,27s41.54-15.07,37.5-48.89c0,0,6.25,4.41,6.25,14,0,0,18-23.16,18-96.68,0-41-1.47-144.93-1.47-144.93s73.84-13.53,83.44-23.14c6.52-6.51,15.05-54.11,15.05-54.11Z"/><path class="cls-9" d="M1374.22,896s14.91,32.31,30.35,37.21,29.51-74.36,29.51-74.36-21.66-8.32-40.18,10.19C1386.59,876.37,1374.22,896,1374.22,896Z"/><path class="cls-9" d="M1421.57,1197.51c-18.44,21.38-1.53,1.77-14.17,16.47-2.61-25.94,5.57-58.29,12.32-84-11.49,12.32-26.8,36.86-34,47.32,13-22.47,9.74-65.85,7.17-91.33-.08.09-15,17.78-21.17,25.11-1.2-11.56-3.19-37.11.76-48.31,4-11.48,15.79-24.94,24.54-33.33-9.82,8.15-22,20.76-26.75,32.51-6.54,16.14-1.83,56.24-1.69,59.12,21.86-24.78,6.94-7.9,20.64-23.52,1.44,21.5,3.55,66.15-6.43,84,11.77-7.44,22.88-23.54,29.64-35.82-17.65,45.6-6.21,72.32-6.19,73-.08.11,1-1.23,14.93-19.36.76,2.81,2.35,8.78,2.51,11.68C1423.67,1210,1422.25,1200.85,1421.57,1197.51Z"/><path class="cls-4" d="M1373.41,975.46l-10,21s9.54,71,126.25,63.13l3.82-30.09S1387.07,1025.79,1373.41,975.46Z"/><rect class="cls-4" x="1167.53" y="708.16" width="8.63" height="380.75" transform="translate(-145.08 1566.59) rotate(-64.38)"/><polygon class="cls-3" points="1003.86 817.29 994.51 807.66 941.02 788.17 880.56 817.29 950.95 888.52 956.05 871.21 911.83 827.35 946.95 804.34 952.18 807.38 970.43 818.01 1003.86 817.29"/><path class="cls-7" d="M1038.87,857a49.61,49.61,0,1,1-49.61-49.61A49.61,49.61,0,0,1,1038.87,857Z"/><path class="cls-3" d="M1014.48,856.37A27.38,27.38,0,1,1,987.11,829,27.38,27.38,0,0,1,1014.48,856.37Z"/><path class="cls-11" d="M939.65,774.15s15.34,28.57,13.76,34c-.86,2.92-25.06,20-39.15,20s2.65-30.33,5.66-27.32,1.08,9.8,1.08,9.8,2.56-20.9,5.93-24.27,4.66,3.78,4.66,3.78-5.05-17.8,0-19.42S939.65,774.15,939.65,774.15Z"/></g></g></svg>